<?xml version="1.0" encoding="UTF-8" standalone="no"?> <!-- Created with Vectornator Pro for iOS (http://vectornator.io/) --><!DOCTYPE svg PUBLIC "-//W3C//DTD SVG 1.1//EN" "http://www.w3.org/Graphics/SVG/1.1/DTD/svg11.dtd">
<svg height="100%" style="fill-rule:evenodd;clip-rule:evenodd;stroke-linecap:round;stroke-linejoin:round;" xmlns:xlink="http://www.w3.org/1999/xlink" xmlns="http://www.w3.org/2000/svg" xml:space="preserve" width="100%" xmlns:vectornator="http://vectornator.io" version="1.1" viewBox="0 0 1024 768">
<metadata>
<vectornator:setting key="DisplayWhiteBackground" value="0"/>
<vectornator:setting key="RulersVisible" value="1"/>
<vectornator:setting key="SnapToEdges" value="0"/>
<vectornator:setting key="Units" value="Pixels"/>
<vectornator:setting key="DynamicGuides" value="0"/>
<vectornator:setting key="SnapToPoints" value="0"/>
<vectornator:setting key="CMYKEnabledKey" value="0"/>
<vectornator:setting key="SnapToGrid" value="0"/>
<vectornator:setting key="ShowGrid" value="1"/>
<vectornator:setting key="GridSpacing" value="36"/>
</metadata>
<defs/>

<g id="Layer 2" vectornator:layerName="Layer 2">
<path stroke="#000000" stroke-width="1" d="M208.356+470.928C210.793+466.297+213.151+461.698+215.363+456.969C218.871+449.471+218.116+443.747+217.189+436.5C217.039+435.326+219.712+437.816+219.711+439C219.706+443.526+220+447.82+221.015+452.248C222.558+458.985+221.615+482.44+228.078+485.422L227.922+485.578C220.313+487.404+214.792+439.992+217.259+438C224.049+432.516+218.9+455.039+217.637+458.031C215.577+462.911+213.208+467.417+210.644+472.072" fill="#000000" stroke-linecap="butt" opacity="1" stroke-linejoin="round"/>
<path stroke="#000000" stroke-width="1" d="M205.962+444.115C217.547+445.025+229.399+440.224+240+441.437L240+441.563C226.266+443.298+220.637+448.487+205.038+446.885" fill="#000000" stroke-linecap="butt" opacity="1" stroke-linejoin="round"/>
<path stroke="#000000" stroke-width="1" d="M217.358+438.912C192.015+430.149+202.652+416.092+226.138+420.947C238.246+423.45+193.412+428.276+217.142+438.088C226.046+441.77+236.463+424.106+225.862+422.053" fill="#000000" stroke-linecap="butt" opacity="1" stroke-linejoin="round"/>
<path stroke="#000000" stroke-width="1" d="M245.5+450.383C250+450.305+254.503+450.342+259+450.15C267.064+449.805+305.22+444.902+305.177+449.823L304.823+450.177C304.817+449.886+302.071+450.175+301.5+450.171C287.211+450.08+273.227+451.689+259+451.85C254.5+451.901+250+451.695+245.5+451.617" fill="#000000" stroke-linecap="butt" opacity="1" stroke-linejoin="round"/>
<path stroke="#000000" stroke-width="1" d="M289.401+438.198C308.238+445.063+328.813+435.697+305.762+461.177C302.53+464.75+298.919+468.854+294.237+470.394L293.763+469.606C297.638+466.882+301.071+463.359+304.238+459.823C307.16+456.559+310.973+453.523+313.579+450.193C320.159+441.786+293.186+443.512+289.599+437.802" fill="#000000" stroke-linecap="butt" opacity="1" stroke-linejoin="round"/>
<path stroke="#000000" stroke-width="1" d="M320.974+331C320.263+391.269+317.763+452.316+319.746+512.5C320.44+533.568+326.311+555.521+324.987+576.5L324.013+576.5C322.949+559.639+320.076+542.957+318.778+526.027C316.935+501.983+318.531+477.55+319.317+453.5C320.65+412.709+318.907+371.813+320.026+331" fill="#000000" stroke-linecap="butt" opacity="1" stroke-linejoin="round"/>
<path stroke="#000000" stroke-width="1" d="M332.059+571.765C337.991+571.052+343.265+570.305+348.922+569.189C354.331+568.123+351.415+570.546+350.5+569.933C349.481+569.251+345.77+514.62+345.633+512.554C343.007+473.048+341.681+433.08+340.491+393.535C340.21+384.16+336.929+326.276+339.162+326.5C339.695+326.553+331.624+328.312+330.5+328.435C327.488+328.763+325.205+330.143+322.081+330.066L321.919+328.934C325.739+328.819+338.678+325.424+339.362+326C342.727+328.831+340.639+360.326+340.921+365.966C343.22+411.981+345.758+457.86+346.904+503.943C347.32+520.635+348.942+537.417+350.118+554C350.289+556.418+348.639+569.708+352.325+569.675C354.617+569.655+347.809+570.461+345.547+570.83C341.193+571.541+336.231+571.797+331.941+572.235" fill="#000000" stroke-linecap="butt" opacity="1" stroke-linejoin="round"/>
<path stroke="#000000" stroke-width="1" d="M353.5+447.937C370.07+448.376+389.089+446.756+403.397+452.103C403.912+452.295+402.641+452.901+404+452L404+452C402.438+454.088+400.284+450.828+397.881+450.833C383.244+450.862+368.175+450.01+353.5+449.063" fill="#000000" stroke-linecap="butt" opacity="1" stroke-linejoin="round"/>
<path stroke="#000000" stroke-width="1" d="M398.117+437.916C402.371+439.654+408.731+439.771+410.479+444.021C413.142+450.5+389.11+466.254+396.547+470.43L396.453+470.57C386.854+466.3+410.658+450.423+409.521+444.979C408.633+440.722+401.872+440.816+397.883+439.084" fill="#000000" stroke-linecap="butt" opacity="1" stroke-linejoin="round"/>
<path stroke="#000000" stroke-width="1" d="M420.199+410.184C421.289+425.238+422.564+441.706+420.689+456.579C420.063+461.544+419.791+466.785+418.723+471.636C418.226+473.897+417.019+480.725+417.66+478.5C418.067+477.086+415.125+477.846+417.116+475.558C420.826+471.295+473.54+474.101+480.205+475.269C486.851+476.434+493.609+476.86+500.212+478.333C503.236+479.008+511.794+478.312+509.322+480.178C505.054+483.399+500.034+461.566+499.341+458.341C496.437+444.833+488.763+400.764+497.997+388.498C498.184+388.249+500.066+395.256+497.241+398.241C493.177+402.534+485.093+402.972+479.68+403.672C464.866+405.588+449.581+409.456+434.738+410.349C431.19+410.562+418.892+425.611+420.801+410.316C421.077+408.104+464.589+402.832+469.376+402.263C478.034+401.234+489.548+402.096+496.58+396.04C497.899+394.904+499.577+390.068+500.003+389.502C501.086+388.063+498.816+392.933+498.615+394.723C498.082+399.472+497.255+403.66+497.238+408.5C497.22+413.47+497.193+418.439+497.188+423.409C497.181+429.763+497.909+435.965+498.723+442.267C499.992+452.107+509.405+471.543+509.034+479.483C508.783+484.876+473.824+476.159+466.5+475.737C453.809+475.005+440.744+475.62+428.123+476.606C425.052+476.846+421.411+474.681+418.884+476.442C418.605+476.636+416.601+481.415+415.34+478.5C413.57+474.405+417.66+461.05+418.311+456.421" fill="#000000" stroke-linecap="butt" opacity="1" stroke-linejoin="round"/>
<path stroke="#000000" stroke-width="1" d="M430.474+449.825C438.879+424.029+440.166+439.847+449.785+452.43L449.215+453.57C442.818+448.808+439.093+430.733+434.738+441.733C433.63+444.533+432.597+447.361+431.526+450.175" fill="#000000" stroke-linecap="butt" opacity="1" stroke-linejoin="round"/>
<path stroke="#000000" stroke-width="1" d="" fill="#000000" stroke-linecap="butt" opacity="1" stroke-linejoin="round"/>
<path stroke="#000000" stroke-width="1" d="M433.5+445.765C438.132+445.075+447.194+440.783+447.547+445.453L447.453+445.547C447.515+445.045+444.796+445.647+444.168+445.883C438.277+448.095+451.898+444.856+433.5+448.235" fill="#000000" stroke-linecap="butt" opacity="1" stroke-linejoin="round"/>
<path stroke="#000000" stroke-width="1" d="M455.597+443.226C453.737+443.859+456.989+446.943+458.108+448.558C463.825+456.806+452.446+444.836+454.736+436.5C455.51+433.683+462.711+429.042+465.232+431.803C471.29+438.435+453.164+443.659+454.903+442.774C466.218+437.015+468.676+429.113+458.438+434.157C458.004+434.371+457.015+434.727+456.738+435.246C452.386+443.403+461.99+450.616+461.523+452.523C460.899+455.069+456.637+449.2+456.408+448.431" fill="#000000" stroke-linecap="butt" opacity="1" stroke-linejoin="round"/>
<path stroke="#000000" stroke-width="1" d="M473.882+433.909C489.729+428.171+479.453+429.514+477.752+437.188C476.872+441.16+481.534+455.268+478.43+458C477.305+458.99+467.5+458.043+467.5+459.108C467.5+459.891+468.224+457.712+468.696+457.088C471.263+453.701+487.974+451.191+490.181+455.819L489.819+456.181C484.984+453.875+479.098+456.432+473.768+457.94C471.758+458.509+467.5+455.802+467.5+457.892C467.5+458.292+476.48+456.887+476.568+457.568C476.914+460.235+476.44+452.19+476.457+449.5C476.469+447.43+475.957+424.967+483+429.92C486.549+432.416+474.574+434.931+474.118+435.091" fill="#000000" stroke-linecap="butt" opacity="1" stroke-linejoin="round"/>
<path stroke="#000000" stroke-width="1" d="M454.622+486.189C455.942+491.642+462.453+518+459.626+522C458.348+523.808+445.057+510.466+445.712+510.288C449.636+509.217+452.483+523.463+460.5+521.934C466.017+520.882+470.797+508.354+473.5+509.123L473.5+509.877C470.503+513.343+470.373+520.064+463.86+523.081C459.687+525.014+455.473+524.295+452.37+521.13C442.375+510.933+443.375+504.666+456.357+517.857C458.953+520.494+456.799+520.813+457.374+522C457.447+522.15+457.372+521.667+457.373+521.5C457.387+517.637+456.806+513.981+456.809+510.149C456.815+501.893+451.42+493.467+455.378+485.811" fill="#000000" stroke-linecap="butt" opacity="1" stroke-linejoin="round"/>
<path stroke="#000000" stroke-width="1" d="M470.395+535.461C459.24+524.285+445.65+532.609+430.772+537.451C426.998+538.679+423.424+540.067+420.001+542.086C418.078+543.22+412.749+546.911+414.937+546.469C427.167+543.997+443.285+547.4+456.799+544.794C461.974+543.796+467.07+542.637+472.105+541.182C472.283+541.131+474.647+540.318+474.59+540.269C471.807+537.917+467+539+467+539C500.697+538.039+416.339+560.661+413.063+545.531C412.193+541.511+423.456+537.814+425.686+537.006C442.162+531.031+456.799+530.13+474.211+531.078" fill="#000000" stroke-linecap="butt" opacity="1" stroke-linejoin="round"/>
<path stroke="#000000" stroke-width="1" d="M415.565+563.882C415.634+567.636+417.942+595.023+411.547+596.094C410.782+596.223+411.643+594.5+412+593.811C413.225+591.448+416.088+597.221+418.182+598.864C422.782+602.473+428.427+605.391+433.974+607.235C447.028+611.573+474.537+599.011+484.214+589.714L485.786+591.286C475.111+602.185+450.413+611.896+435.573+610.282C429.211+609.59+421.678+605.103+416.818+601.136C416.708+601.046+410.861+596.527+411.142+596.358C413.057+595.203+413.336+569.444+413.435+564.118" fill="#000000" stroke-linecap="butt" opacity="1" stroke-linejoin="round"/>
<path stroke="#000000" stroke-width="1" d="M477.965+552.379C479.833+559.313+491.163+586.246+486.659+597L485.341+597C480.563+585.593+478.309+562.955+476.035+552.621" fill="#000000" stroke-linecap="butt" opacity="1" stroke-linejoin="round"/>
<path stroke="#000000" stroke-width="1" d="M432.603+575.132C432.946+576.121+436.466+584.525+437.007+588.164C437.238+589.714+437.497+592.201+436.536+591.5L436.464+591.5C436.121+591.75+432.197+580.965+430.397+575.868" fill="#000000" stroke-linecap="butt" opacity="1" stroke-linejoin="round"/>
<path stroke="#000000" stroke-width="1" d="M431.385+569.542C447.934+573.553+448.429+584.458+435.305+591.805L434.695+591.195C441.356+581.967+454.038+577.919+431.615+570.458" fill="#000000" stroke-linecap="butt" opacity="1" stroke-linejoin="round"/>
<path stroke="#000000" stroke-width="1" d="M450.839+573.161C453.249+577.129+460.313+584.186+456.069+586.069C447.899+589.695+440.846+558.536+454+563.342C459.569+565.377+453.253+571.759+454.908+573.5C456.951+575.651+463.936+570.724+466.117+575.089C468.256+579.371+458.559+587.708+454.5+587.094L454.5+586.906C454.883+586.771+457.425+583.832+458.137+583.137C459.295+582.006+460.385+581.093+461.79+580.29C473.345+573.683+453.923+575.594+453.092+573.5C452.189+571.221+457.193+567.095+454+564.658C450.171+561.736+446.92+570.581+447.693+573.154C448.593+576.151+458.564+590.11+454.324+581.875C452.943+579.193+451.548+576.518+450.161+573.839" fill="#000000" stroke-linecap="butt" opacity="1" stroke-linejoin="round"/>
<path stroke="#000000" stroke-width="1" d="M515+437.784C523.498+437.71+532.001+437.524+540.5+437.497C543.233+437.488+545.745+437.034+548.5+437.066C550.192+437.086+554.834+438.978+553.5+437.937C553.277+437.763+550.47+425.758+545+429.631C543.081+430.989+556.074+438.057+556.735+439.265C559.116+443.61+546.634+449.165+553.5+449.974L553.5+450.026C541.619+451.426+555.76+441.925+555.265+440.735C554.484+438.861+536.72+430.929+545+427.369C550.367+425.062+557.673+433.604+554.965+438.482C553.131+441.786+515.818+440.223+515+440.216" fill="#000000" stroke-linecap="butt" opacity="1" stroke-linejoin="round"/>
<path stroke="#000000" stroke-width="1" d="M572.772+429.449C570.377+432.966+569.552+437.331+568.181+441.36C565.666+448.754+571.979+453.466+576.056+446.056C578.246+442.076+569.128+430.902+573.228+428.551C583.155+422.858+580.448+447.105+573.827+452.307C567.689+457.129+563.577+444.74+565.819+440.64" fill="#000000" stroke-linecap="butt" opacity="1" stroke-linejoin="round"/>
<path stroke="#000000" stroke-width="1" d="M584.5+425.5C574.029+424.878+599.35+422.525+601.897+422.157C615.376+420.208+629.216+418.385+642.77+417.122C644.331+416.976+664.556+416.187+657.584+421.084L657.416+420.916C659.45+417.714+639.19+420.763+637.11+420.925C624.217+421.929+611.479+424.578+598.5+425.281C595.676+425.435+574.746+422.796+584.5+425.5" fill="#000000" stroke-linecap="butt" opacity="1" stroke-linejoin="round"/>
<path stroke="#000000" stroke-width="1" d="M588.344+454.031C607.677+452.215+627.026+450.994+646.361+449.752C653.381+449.301+661.985+448.556+669+449.463C673.243+450.012+675.694+454.232+673.5+453.076L673.5+452.924C672.98+451.387+660.298+452.353+654.5+452.314C632.69+452.168+610.491+453.908+588.656+454.969" fill="#000000" stroke-linecap="butt" opacity="1" stroke-linejoin="round"/>
<path stroke="#000000" stroke-width="1" d="M663+417.993C672.483+422.805+691.72+453.5+674.022+451.132L673.978+450.868C686.045+448.882+669.242+423.962+663+419.007" fill="#000000" stroke-linecap="butt" opacity="1" stroke-linejoin="round"/>
<path stroke="#000000" stroke-width="1" d="M597.194+435.306C598.2+437.61+604.025+446.174+601.236+449.5L600.764+449.5C598.877+447.249+596.573+439.026+595.806+436.694" fill="#000000" stroke-linecap="butt" opacity="1" stroke-linejoin="round"/>
<path stroke="#000000" stroke-width="1" d="M614.077+439.231C614.878+440.517+620.934+447.761+620.5+451L620.5+451C619.815+446.34+614.523+443.697+611.923+439.769" fill="#000000" stroke-linecap="butt" opacity="1" stroke-linejoin="round"/>
<path stroke="#000000" stroke-width="1" d="M631.395+435.821C634.675+441.653+635.094+443.271+636.848+447.826L636.152+448.174C633.685+446.273+630.426+437.802+629.605+436.179" fill="#000000" stroke-linecap="butt" opacity="1" stroke-linejoin="round"/>
<path stroke="#000000" stroke-width="1" d="M656.002+433.599C656.14+434.003+661.228+444.862+659.877+448.406L659.123+448.594C656.914+443.903+655.818+439.994+653.998+434.401" fill="#000000" stroke-linecap="butt" opacity="1" stroke-linejoin="round"/>
<path stroke="#000000" stroke-width="1" d="M522.686+398.625C521.621+404.009+522.923+409.874+520.962+415C518.506+421.421+528.965+414.125+536.733+413.297C542.992+412.629+549.167+412.27+555.5+412.264C558.462+412.261+564.128+413.423+564+413.347C561.35+411.77+561.044+409.058+559.781+400.703C559.321+397.652+559.257+394.641+559.287+391.5C559.288+391.333+559.357+390.843+559.3+391C558.716+392.611+548.926+392.503+545.634+392.839C541.871+393.224+520.585+399.483+521.125+393C521.287+391.061+516.216+413.007+521.314+399.375C523.469+393.613+524.203+397.107+522.057+395.472C521.628+395.144+520.888+394.218+521.382+394C521.88+393.78+523.781+394.125+523.875+393C523.944+392.168+532.951+391.759+538.209+391.19C542.856+390.687+558.248+385.758+561.7+391C563.024+393.011+561.826+399.859+562.189+402.262C562.837+406.56+565.394+411.848+564.903+414.903C564.639+416.54+548.504+414.503+546.62+414.705C539.462+415.473+525.145+421.312+518.619+419.881" fill="#000000" stroke-linecap="butt" opacity="1" stroke-linejoin="round"/>
<path stroke="#000000" stroke-width="1" d="M527.237+398.051C530.646+399.486+541.595+402.737+545.071+405.858C545.354+406.112+545.32+407.322+545.401+406.95C545.896+404.662+556.77+394.143+559+395.066L559+395.934C544.935+413.217+546.856+409.371+526.763+399.949" fill="#000000" stroke-linecap="butt" opacity="1" stroke-linejoin="round"/>
<path stroke="#000000" stroke-width="1" d="M585.156+279.593C592.687+295.392+590.309+343.711+595.513+350.5C596.43+351.695+598.494+349.983+600+349.978C610.833+349.941+621.667+349.888+632.5+349.877C640.833+349.868+649.167+349.852+657.5+349.875C689.16+349.964+703.992+349.992+704+349.966C704.05+349.805+698.352+337.632+698.055+336.236C695.354+323.556+693.538+310.531+693.545+297.553C693.549+290.388+694.654+284.613+696.649+277.787C697.625+274.452+698.673+271.031+699.697+267.799C699.778+267.545+699.833+266.819+699.636+267C688.48+277.255+629.373+275.955+614.082+276.603C608.089+276.857+589.911+296.374+584.344+279.407C583.93+278.147+582.997+276.746+583.5+275.519C584.191+273.834+587.134+275.277+588.954+275.218C604.439+274.717+619.945+273.914+635.44+272.977C651.178+272.025+667.207+271.773+682.797+270.052C685.806+269.72+698.919+264.439+701.364+267C701.848+267.508+700.446+271.325+700.289+271.796C697.023+281.607+694.869+291.003+695.455+301.455C695.939+310.093+705.144+350.348+704.746+351.246C702.81+355.62+683.433+352.79+679.933+352.575C658.41+351.254+636.593+352.139+615+352.07C611.13+352.057+597.238+354.344+594.081+351.459C591.057+348.696+591.657+333.871+591.415+330.583" fill="#000000" stroke-linecap="butt" opacity="1" stroke-linejoin="round"/>
<path stroke="#000000" stroke-width="1" d="M625.801+367.5C625.575+369.347+622.772+411.345+622.311+412C619.312+416.262+613.435+407.729+610.885+406.115C610.734+406.019+610.339+405.708+610.517+405.725C625.845+407.163+623.111+415.434+635.94+404.44L636.06+404.56C630.134+411.476+629.848+414.417+621.308+409.077C620.057+408.294+610.946+404.225+611.483+404.275C613.982+404.51+619.332+411.63+620.689+412C622.147+412.398+620.123+409.012+620.124+407.5C620.127+403.994+619.789+400.329+620.132+396.855C621.09+387.136+622.89+377.136+624.199+367.5" fill="#000000" stroke-linecap="butt" opacity="1" stroke-linejoin="round"/>
<path stroke="#000000" stroke-width="1" d="M623.303+311.409C637.434+307.919+636.236+313.651+647.401+317.298C656.286+320.201+666.532+313.079+676.007+315.938L675.993+316.062C666.436+314.17+655.696+321.785+646.599+318.702C635.633+314.985+637.655+309.6+623.697+312.591" fill="#000000" stroke-linecap="butt" opacity="1" stroke-linejoin="round"/>
<path stroke="#000000" stroke-width="1" d="M779.513+337.487C787.163+358.843+793.561+383.881+789.547+406.781C789.076+409.47+782.276+452.142+792.419+443.959L792.581+444.041C784.622+453.93+783.997+429.163+783.953+424.881C783.852+414.848+787.186+404.939+788.098+395C789.738+377.118+783.293+355.182+778.487+338.513" fill="#000000" stroke-linecap="butt" opacity="1" stroke-linejoin="round"/>
<path stroke="#000000" stroke-width="1" d="M786.971+330.324C803.678+329.488+819.416+329.98+836.044+330.531C854.002+331.126+872.02+331.008+890+330.995C896.167+330.99+902.333+330.97+908.5+330.975C911.339+330.978+917+334.335+917+331.496C917+331.243+917.446+333.89+917.575+334.5C918.204+337.479+918.299+340.446+918.578+343.5C919.382+352.297+919.077+361.156+919.075+370C919.066+397.427+924.686+427.429+929.096+452.904C929.296+454.057+906.42+454.363+905.554+454.41C888.226+455.344+870.913+456.334+853.532+456.96C848.558+457.139+799.452+466.305+802.855+459.464L803.145+459.536C802.703+462.281+826.907+456.903+832.418+456.391C856.629+454.142+881.202+453.836+905.446+452.59C908.536+452.432+927.198+450.019+927.904+454.096C928.051+454.946+924.897+446.968+924.568+445.085C923.407+438.444+923.719+431.822+922.943+425.124C920.27+402.05+916.919+381+916.92+357.5C916.92+351.917+917.12+346.158+916.43+340.619C916.388+340.282+914.999+332.186+915.743+332.243C918.737+332.472+905.006+333.029+902.5+333.027C892.667+333.02+882.833+333.009+873+333.018C844.256+333.042+815.767+330.373+787.029+330.676" fill="#000000" stroke-linecap="butt" opacity="1" stroke-linejoin="round"/>
<path stroke="#000000" stroke-width="1" d="M834.809+385.372C847.3+379.151+844.557+394.313+856.351+398.474C868.283+402.684+881.88+398.231+894.017+402.45L893.983+402.55C881.638+399.778+867.554+403.975+855.649+399.526C843.964+395.159+846.628+380.768+835.191+385.628" fill="#000000" stroke-linecap="butt" opacity="1" stroke-linejoin="round"/>
<path stroke="#000000" stroke-width="1" d="M755.26+387.019C738.388+396.903+722.428+408.224+705.466+417.799C703.479+418.921+692.863+426.846+691.5+425.417C687.848+421.585+700.344+403.223+705.5+405.635C709.597+407.551+693.304+427.562+693.804+428.902C694.027+429.501+707.979+424.508+713.532+428.34L713.468+428.66C706.016+426.444+687.204+436.002+695.351+423.067C697.064+420.347+698.954+417.731+700.8+415.15C702.547+412.707+702.943+409.042+705.5+407.365C706.332+406.82+703.51+407.685+702.612+408.112C701.281+408.746+699.027+411.408+698.266+412.425C695.715+415.834+693.868+423.164+690.886+424.386C688.341+425.43+695.635+421.607+697.973+420.157C703.134+416.958+708.472+414.148+713.544+410.758C726.987+401.775+740.426+393.707+754.74+385.981" fill="#000000" stroke-linecap="butt" opacity="1" stroke-linejoin="round"/>
<path stroke="#000000" stroke-width="1" d="M630.216+546.398C632.295+568.703+634.755+589.864+634.824+612C634.829+613.61+639+647.533+639+638.5L639+638.5C639+653.132+633.163+616.047+633.176+612C633.245+590.107+630.621+568.472+628.784+546.602" fill="#000000" stroke-linecap="butt" opacity="1" stroke-linejoin="round"/>
<path stroke="#000000" stroke-width="1" d="M637.935+537.174C667.598+535.015+697.345+534.198+726.967+531.903C736.983+531.128+746.939+530.923+756.955+530.248C763.457+529.81+769.938+529.799+776.407+529.477C811.931+527.713+802.021+524.9+807.644+561.817C809.006+570.755+810.849+579.403+812.518+588.246C813.616+594.065+828.025+629.59+824.708+632.354C819.8+636.445+803.113+631.505+797.413+631.192C771.638+629.777+745.886+627.488+720+628.388C699.318+629.107+678.79+633.231+658.037+633.043C654.083+633.007+639.625+635.713+639.956+629.509L640.044+629.491C640.346+634.309+654.523+630.988+657.963+630.957C678.723+630.767+699.285+627.187+720+626.612C745.977+625.891+771.727+628.354+797.587+629.808C804.483+630.196+822.667+633.127+823.713+631.5C826.016+627.915+811.754+594.768+810.482+588.754C808.6+579.857+806.757+571.204+805.356+562.183C799.308+523.258+812.141+529.106+776.593+531.523C770.095+531.965+763.593+532.257+757.045+532.752C747.049+533.506+737.049+533.62+727.033+534.097C697.384+535.509+667.735+536.353+638.065+537.826" fill="#000000" stroke-linecap="butt" opacity="1" stroke-linejoin="round"/>
<path stroke="#000000" stroke-width="1" d="M679.492+509.508C675.073+504.91+670.662+500.304+666.237+495.713C663.267+492.632+660.825+489.19+657.775+486.159C654.492+482.898+645.282+467.236+649.397+472.052C652.431+475.603+650.94+485.597+650.875+490C650.867+490.514+650.938+498.001+649.655+497.655C647.268+497.012+643.416+468.305+650.514+466.69C658.338+464.909+667.781+471.523+676+472.212L676+472.788C670.317+473.265+649.879+466.626+648.444+470C646.423+474.753+649.948+483.133+649.915+488C649.907+489.187+650.77+494.494+649.828+495.586C649.428+496.05+648.042+497.019+648.654+497C649.666+496.969+648.885+494.981+649.136+494C650.861+487.268+643.834+464.061+650.841+474.869C651.832+476.398+653.085+477.908+654.272+479.338C655.832+481.218+657.498+483.103+659.225+484.841C662.237+487.871+664.893+491.152+667.763+494.287C672.059+498.98+676.26+503.757+680.508+508.492" fill="#000000" stroke-linecap="butt" opacity="1" stroke-linejoin="round"/>
<path stroke="#000000" stroke-width="1" d="M685.5+582.295C691.15+556.71+716.078+575.702+727.218+577.518C735.709+578.903+744.84+577.248+752.962+575.273L753.038+575.727C721.281+589.372+708.322+556.352+685.5+581.705" fill="#000000" stroke-linecap="butt" opacity="1" stroke-linejoin="round"/>
<path stroke="#000000" stroke-width="1" d="M877.446+473.342C878.629+480.312+880.15+486.174+879.978+493C879.958+493.784+880.311+497.521+879.078+497.578C875.535+497.74+873.032+490.364+870.306+489.463C869.494+489.194+873.916+500.577+876.028+500.972C882.351+502.157+885.104+491.828+888.564+496.468L888.436+496.532C885.431+494.231+883.195+504.689+877.319+502.724C874.203+501.681+867.637+488.979+870.871+488.258C874.582+487.431+874.626+495.699+878.199+497C878.983+497.285+878.114+495.334+878.093+494.5C878.017+491.492+878.041+488.624+877.521+485.681C876.814+481.682+876.209+477.666+875.554+473.658" fill="#000000" stroke-linecap="butt" opacity="1" stroke-linejoin="round"/>
<path stroke="#000000" stroke-width="1" d="M864+509.306C858.464+510.407+854.28+511.966+849.464+514.428C839.217+519.665+859.911+520.41+861.579+520.396C875.484+520.282+890.21+521.577+903.896+518.858C916.697+516.316+898.224+512.513+893.5+511.889C889.319+511.336+885.236+510.923+881+510.782L881+510.218C887.279+510.009+910.16+508.06+910.97+517.985C911.311+522.155+893.085+522.468+891+522.662C878.966+523.777+858.727+525.874+847.446+521.332C834.977+516.311+862.997+507.86+864+507.694" fill="#000000" stroke-linecap="butt" opacity="1" stroke-linejoin="round"/>
<path stroke="#000000" stroke-width="1" d="M848.33+538.223C848.366+538.938+847.805+555.798+848.979+555.957L849.021+556.043C844.271+556.787+846.773+541.554+846.67+538.777" fill="#000000" stroke-linecap="butt" opacity="1" stroke-linejoin="round"/>
<path stroke="#000000" stroke-width="1" d="M855.033+560.967C860.048+564.022+864.864+567.431+870.078+570.132C880.389+575.475+916.63+565.049+926.381+559.941L926.619+560.059C927.183+564.19+912.627+567.701+909.391+568.564C886.376+574.698+874.345+575.434+853.967+562.033" fill="#000000" stroke-linecap="butt" opacity="1" stroke-linejoin="round"/>
<path stroke="#000000" stroke-width="1" d="M920.983+529.672C922.083+536.74+925.507+550.223+924.757+558.914L924.243+559.086C923.404+550.655+919.96+538.574+919.017+530.328" fill="#000000" stroke-linecap="butt" opacity="1" stroke-linejoin="round"/>
<path stroke="#000000" stroke-width="1" d="M715.199+644.767C716.74+655.661+717.54+666.146+718.381+677C718.447+677.855+720.324+688.715+719.813+689C717.795+690.127+714.792+687.583+713.16+686.68C711.768+685.91+699.722+676.732+701.826+674.837C704.156+672.739+728.778+704.76+733.446+676L734.554+676C736.466+703.585+701.92+681.465+703.174+674.163C703.293+673.471+703.801+675.424+704.171+676.021C705.398+677.999+706.832+679.777+708.583+681.32C710.371+682.897+718.909+687.301+718.187+689C717.457+690.717+717.421+685.346+717.146+683.5C716.658+680.215+716.622+676.384+716.641+673.086C716.693+664.159+714.874+653.813+713.801+645.233" fill="#000000" stroke-linecap="butt" opacity="1" stroke-linejoin="round"/>
<path stroke="#000000" stroke-width="1" d="M742.236+697.562C735.38+682.064+727.141+691.853+714.964+692.51C710.316+692.76+705.804+694.09+701.202+694.713C642.431+702.671+741.528+702.078+741.528+702.078C719.609+712.595+643.687+698.829+700.798+692.287C705.569+691.74+710.218+690.617+715.036+690.49C723.826+690.259+735.193+691.32+743+691.797" fill="#000000" stroke-linecap="butt" opacity="1" stroke-linejoin="round"/>
<path stroke="#000000" stroke-width="1" d="M678.661+708C679.674+714.47+680.547+719.362+680.549+725.5C680.549+728.302+680.518+734.007+680.524+734C681.373+732.904+680.158+730.258+678.772+730.228L679.228+729.772C680.879+729.759+680.467+736.849+678.476+734C676.725+731.494+677.38+708.392+677.339+708" fill="#000000" stroke-linecap="butt" opacity="1" stroke-linejoin="round"/>
<path stroke="#000000" stroke-width="1" d="M690.893+734.41C710.279+737.135+737.224+731.573+745.977+728.977L746.023+729.023C745.374+728.672+748.471+729.142+748.148+731C747.595+734.185+742.355+733.965+739.707+734.243C721.775+736.128+708.342+739.634+690.107+735.59" fill="#000000" stroke-linecap="butt" opacity="1" stroke-linejoin="round"/>
<path stroke="#000000" stroke-width="1" d="M751.56+705.388C752.482+710.614+756.586+721.05+754.619+727.5L754.381+727.5C752.061+719.895+751.331+714.55+750.44+705.612" fill="#000000" stroke-linecap="butt" opacity="1" stroke-linejoin="round"/>
</g>
</svg>
