<?xml version="1.0" encoding="UTF-8" standalone="no"?> <!-- Created with Vectornator Pro for iOS (http://vectornator.io/) --><!DOCTYPE svg PUBLIC "-//W3C//DTD SVG 1.1//EN" "http://www.w3.org/Graphics/SVG/1.1/DTD/svg11.dtd">
<svg style="fill-rule:evenodd;clip-rule:evenodd;stroke-linecap:round;stroke-linejoin:round; max-width: 100%; max-height: 100%;" xmlns:vectornator="http://vectornator.io" xmlns:xlink="http://www.w3.org/1999/xlink" xmlns="http://www.w3.org/2000/svg" xml:space="preserve" version="1.1">
<metadata>
<vectornator:setting key="DisplayWhiteBackground" value="0"/>
<vectornator:setting key="RulersVisible" value="1"/>
<vectornator:setting key="SnapToEdges" value="0"/>
<vectornator:setting key="Units" value="Pixels"/>
<vectornator:setting key="DynamicGuides" value="0"/>
<vectornator:setting key="SnapToPoints" value="0"/>
<vectornator:setting key="SnapToGrid" value="0"/>
<vectornator:setting key="ShowGrid" value="1"/>
<vectornator:setting key="GridSpacing" value="36"/>
</metadata>
<defs/>
<g id="Layer 1" vectornator:layerName="Layer 1">
<path stroke="#000000" stroke-width="1" d="M330.445+276C338.465+248.812+358.857+226.666+376.088+204.74C413.414+157.241+461.63+107.56+516.813+81.1891C529.607+75.0751+585.403+47.4+595.5+52.2322L595.5+52.7678C596.157+53.7476+594.949+54.3491+594.006+54.265C586.348+53.5816+572.013+60.0101+565.014+62.7862C541.762+72.0094+519.32+82.0737+498.302+95.734C442.947+131.711+355.567+212.22+331.555+276" fill="#000000" stroke-linecap="butt" opacity="1" stroke-linejoin="round"/>
<path stroke="#000000" stroke-width="1" d="M498.732+385.322C536.77+336.793+585.432+232.88+594.641+172.728C598.516+147.418+602.98+122.171+603.159+96.5C603.211+89.0798+597.649+68.847+601.142+63L602.858+63C610.586+75.9361+603.608+133.401+601.347+148.658C590.931+218.946+549.425+334.346+499.268+385.678" fill="#000000" stroke-linecap="butt" opacity="1" stroke-linejoin="round"/>
<path stroke="#000000" stroke-width="1" d="M337.039+290.676C366.711+351.662+405.457+377.37+470.161+389.213C475.447+390.181+481.719+393.151+486.644+393.569L486.356+394.431C480.167+394.928+473.2+392.037+466.935+391.3C408.142+384.383+359.986+345.642+335.961+291.324" fill="#000000" stroke-linecap="butt" opacity="1" stroke-linejoin="round"/>
<path stroke="#000000" stroke-width="1" d="M467.74+322.066C500.498+289.102+525.025+245.107+537.099+200.069C541.883+182.223+544.91+163.511+551.068+146.079C553.462+139.303+557.665+133.045+559.874+126.265L561.126+126.735C558.927+138.869+552.677+150.805+549.555+162.846C534.162+222.206+514.606+280.206+468.26+322.934" fill="#000000" stroke-linecap="butt" opacity="1" stroke-linejoin="round"/>
<path stroke="#000000" stroke-width="1" d="M388.647+157.853C357.309+144.389+327.237+156.896+299.007+172.436C250.936+198.898+209.325+240.222+183.279+288.746C173.941+306.144+166.756+324.728+161.951+343.863C161.517+345.593+159.244+362.41+157.432+363L154.568+363C153.992+346.497+164.022+324.715+170.107+309.903C194.363+250.867+242.499+201.059+297.993+170.564C326.332+154.991+358.42+141.125+389.353+157.147" fill="#000000" stroke-linecap="butt" opacity="1" stroke-linejoin="round"/>
<path stroke="#000000" stroke-width="1" d="M177.756+359.233C219.473+363.716+257.855+331.606+286.962+305.847C295.961+297.883+304.046+284.122+314.743+279.243L315.257+279.757C290.888+317.713+223.879+367.38+177.244+360.767" fill="#000000" stroke-linecap="butt" opacity="1" stroke-linejoin="round"/>
<path stroke="#000000" stroke-width="1" d="M581.355+270.358C629.082+352.946+628.531+420.976+596.115+509.936C587.716+532.984+573.453+551.108+558.473+569.876C555.573+573.51+544.104+584.976+538.456+583.912L537.544+582.088C563.187+576.136+587.449+525.084+595.869+503.593C628.896+419.293+622.622+349.735+579.645+271.642" fill="#000000" stroke-linecap="butt" opacity="1" stroke-linejoin="round"/>
<path stroke="#000000" stroke-width="1" d="M535.075+566.712C516.944+535.083+491.814+464.886+495.219+429C495.939+421.421+500.494+414.951+501.338+407.5L502.662+407.5C503.594+418.668+497.926+429.572+498.734+441.269C501.581+482.478+518.542+528.993+535.925+566.288" fill="#000000" stroke-linecap="butt" opacity="1" stroke-linejoin="round"/>
<path stroke="#000000" stroke-width="1" d="M321.03+326.235C324.74+341.354+326.521+357.674+333.36+371.656C333.468+371.876+334.268+372.763+333.3+373.8C325.617+382.022+300.645+382.966+295.383+398.442C294.125+402.141+322.775+418.329+320.232+422.5C307.852+442.809+267.108+457.784+249.241+477.241C248.999+477.505+249.527+476.581+249.721+476.279C250.011+475.828+260.364+484.482+261.167+485.166C268.802+491.663+280.048+500.582+282.887+510.909C286.258+523.174+246.131+545.447+238.487+560.564C234.858+567.743+257.377+565.361+257.272+592C257.238+600.579+249.281+602.423+243.592+606.184C241.792+607.374+239.914+608.721+238.211+609.995C237.407+610.596+236.434+613.566+236.691+612.596C242.407+591.061+305.648+575.589+325.248+571.39C327.438+570.92+359.265+566.07+359.614+565.536C359.885+565.122+337.099+518.309+347.164+512.164C355.147+507.29+392.28+512.828+403+512.195C405.408+512.053+420.998+510.966+420.157+509.052C415.565+498.604+407.14+475.571+423.233+469.563C428.958+467.425+455.011+472.037+456.182+467.478C459.405+454.928+451.441+440.319+453.198+427.59C454.852+415.607+466.717+407.009+463.991+413.254L463.009+413.746C461.297+411.536+457.49+423.185+456.802+427.41C454.679+440.432+461.279+454.109+458.76+467.13C456.677+477.89+428.506+466.288+419.734+475.569C409.298+486.609+426.437+504.788+422.135+511.77C419.818+515.529+371.35+515.154+365.312+514.723C362.852+514.548+350.269+510.629+348.156+514.165C342.923+522.924+352.397+544.786+356.003+552.46C357.332+555.287+364.25+564.179+360.386+567.464C356.4+570.851+345.991+569.733+341.23+570.603C321.344+574.233+300.473+577.781+281.373+584.494C267.117+589.506+257.312+597.327+245.677+606.313C243.806+607.759+238.169+615.311+235.148+612.852C229.967+608.631+253.287+601.108+254.734+593C257.411+577.999+240.096+574.226+236.45+563C232.706+551.473+275.405+524.867+281.392+516.5C286.203+509.775+260.787+488.345+257.258+484.742C256.466+483.934+246.756+476.554+247.759+475.759C264.192+462.744+285.955+452.025+302.922+437.817C308.292+433.321+318.452+422.421+318.18+421.82C315.235+415.304+291.028+405.445+293.617+397.558C296.465+388.884+329.213+369.212+332.342+373.658C333.583+375.42+330.268+369.849+329.619+367.794C328.611+364.601+327.554+361.411+326.748+358.167C324.155+347.736+322.06+337.342+319.97+326.765" fill="#000000" stroke-linecap="butt" opacity="1" stroke-linejoin="round"/>
<path stroke="#000000" stroke-width="1" d="M337.285+347.215C370.411+385.751+404.832+407.562+456.537+412.408L456.463+413.592C406.499+418.085+365.982+383.446+336.715+347.785" fill="#000000" stroke-linecap="butt" opacity="1" stroke-linejoin="round"/>
<path stroke="#000000" stroke-width="1" d="M348.228+381.636C350.028+385.491+352.037+389.604+353.324+393.67C356.698+404.336+337.774+396.194+333.929+403.858C332.064+407.573+359.395+423.256+349.795+436.096C339.459+449.92+319.28+457.404+307.157+469.657C304.867+471.973+292.928+479.656+295.918+484C300.654+490.879+314.292+490.852+318.051+497.949C320.209+502.022+298.594+531.806+295.341+538.42C292.805+543.576+291.499+549.453+287.743+553.946C286.027+555.997+282.665+562.801+282.627+560.127C282.563+555.685+293.448+545.379+296.859+541.95C308.937+529.809+335.246+494.292+351.095+491.19C362.528+488.952+373.805+484.567+385.222+482.527C388.062+482.02+390.913+482.394+393.448+483.604C394.53+484.121+396.355+486.728+396.482+485.536C396.742+483.103+377.174+459.068+379.559+455.5C379.748+455.217+380.024+454.981+380.329+454.829C385.156+452.424+408.758+449.897+416.195+448.008C416.575+447.912+426.953+444.683+426.92+444.631C424.145+440.118+417.622+425.312+414.456+424.587C392.24+419.499+357.52+421.419+346.705+395.736L347.295+395.264C368.505+431.054+418.499+401.658+428.67+444.5C429.556+448.229+416.552+449.942+414.824+450.471C406.421+453.041+390.468+459.745+381.5+456.467C378.175+455.251+398.352+483.071+397.085+485.5C395.446+488.639+389.767+483.858+385.778+484.473C373.607+486.349+354.848+490.02+344.073+496.073C329.917+504.025+307.422+532.002+296.142+545.035C294.395+547.054+284.549+561.98+281.698+559.5C280.764+558.687+288.235+550.272+289.137+548.676C293.234+541.433+315.757+504.629+316.698+501.5C319.453+492.349+290.02+493.045+294.079+480.693C299.388+464.535+336.915+446.919+349.556+433.264C357.545+424.634+331.118+411.681+332.448+404C333.193+399.703+340.889+399.771+344.218+398.654C344.735+398.481+353.453+395.848+353.5+396.564C353.696+399.54+348.025+385.579+346.772+382.364" fill="#000000" stroke-linecap="butt" opacity="1" stroke-linejoin="round"/>
<path stroke="#000000" stroke-width="1" d="M364.346+424.827C369.66+435.872+344.262+453.845+336.432+462.889C333.568+466.197+331.093+469.819+327.998+472.915C326.358+474.554+321.645+479.565+323.583+478.291C326.246+476.54+334.74+482.619+339+479.877C341.007+478.585+365.248+460.442+365.464+459.964C369.217+451.622+361.914+438.373+377.598+427.965L378.402+429.035C363.643+438.924+370.944+452.773+366.536+461.036C366.431+461.234+339.947+480.724+339+481.123C335.797+482.472+328.795+479.611+326.5+478.195C325.158+477.367+323.102+479.184+322.417+477.709C321.599+475.947+331.37+467.44+332.509+466.132C340.502+456.953+367.631+434.899+363.654+425.173" fill="#000000" stroke-linecap="butt" opacity="1" stroke-linejoin="round"/>
<path stroke="#000000" stroke-width="1" d="M156.311+378.656C134.185+408.359+111.521+437.774+88.2148+466.566C80.0574+476.643+71.3173+491.457+61.6397+500.093L61.3603+499.907C70.3063+489.682+78.1077+476.234+86.7852+465.434C109.978+436.567+133.371+407.9+155.689+378.344" fill="#000000" stroke-linecap="butt" opacity="1" stroke-linejoin="round"/>
<path stroke="#000000" stroke-width="1" d="M214.719+371.164C189.974+402.437+165.034+433.824+139.034+464.025L138.966+463.975C162.733+431.952+189.025+401.786+214.281+370.836" fill="#000000" stroke-linecap="butt" opacity="1" stroke-linejoin="round"/>
<path stroke="#000000" stroke-width="1" d="M142.881+308.718C138.152+315.981+101.318+355.819+101.194+360.549L100.806+360.451C100.683+353.769+136.804+316.069+142.119+308.282" fill="#000000" stroke-linecap="butt" opacity="1" stroke-linejoin="round"/>
<path stroke="#000000" stroke-width="1" d="M527.919+611.64C518.836+631.256+508.438+650.808+498.214+669.838C494.931+675.948+485.408+685.813+484.527+693.007L484.473+692.993C483.83+687.137+492.505+677.745+494.853+673.157C505.413+652.518+517.211+632.343+527.081+611.36" fill="#000000" stroke-linecap="butt" opacity="1" stroke-linejoin="round"/>
<path stroke="#000000" stroke-width="1" d="M509.413+571.683C503.056+586.9+493.828+623.408+477.158+636.658L476.842+636.342C491.783+617.544+499.367+593.124+508.587+571.317" fill="#000000" stroke-linecap="butt" opacity="1" stroke-linejoin="round"/>
<path stroke="#000000" stroke-width="1" d="M567.249+595.666C558.653+621.393+550.96+647.787+537.66+671.58L537.34+671.42C548.501+646.215+557.705+621.871+566.751+595.334" fill="#000000" stroke-linecap="butt" opacity="1" stroke-linejoin="round"/>
<path stroke="#000000" stroke-width="1" d="M171.461+59.6597C159.947+71.5083+174.35+66.5702+180.5+62.7293C182.369+61.5621+176.203+63.9067+174+63.9312C171.791+63.9557+160.422+56.4783+161.137+55.3635C161.229+55.219+169.771+62.9477+170.723+63.7211C178.36+69.9262+175.484+72.7598+172.556+64.2773C172.04+62.7819+168.412+58.1171+171.539+59.3403C175.586+60.9231+176.386+71.1142+176.772+70.7279C177.526+69.9736+175.404+69.09+174.763+68.2374C172.527+65.2635+159.654+58.083+161.863+54.6365C162.169+54.1598+162.409+55.6429+162.795+56.0571C165.921+59.4088+175.962+66.1049+180.5+63.2707C181.401+62.7081+178.458+63.8842+177.5+64.3431C176.444+64.8491+166.197+68.2621+165.632+67.5" fill="#000000" stroke-linecap="butt" opacity="1" stroke-linejoin="round"/>
<path stroke="#000000" stroke-width="1" d="M288.751+44.6253C285.892+49.1203+283.114+53.6678+280.174+58.1102C279.563+59.0329+276.825+59.433+277.608+60.2154C279.168+61.7754+297.192+60.0257+298.264+58.7644C298.386+58.6216+295.971+56.5484+295.688+56.3119C290.563+52.029+278.685+53.364+274.763+48.5929C274.689+48.5027+278.776+49.9986+280.328+52.3029C282.179+55.0509+286.712+68.0152+291.594+65.6726C292.711+65.1363+291.142+63.2326+291.012+62C290.082+53.2219+286.701+42.7879+290.676+34.419L291.324+34.581C289.387+44.9602+291.725+66.2519+291.406+66.3274C285.857+67.6433+282.628+57.6331+280.676+54.2163C278.67+50.7068+273.922+46.5726+275.237+47.4071C281.684+51.498+290.397+50.4903+296.312+55.6881C296.635+55.9722+299.529+58.5612+298.736+59.2356C294.92+62.4808+289.015+60.3825+284+60.365C281.789+60.3572+275.829+58.2212+277.392+59.7846C277.862+60.2546+279.725+58.0456+279.826+57.8898C282.715+53.4361+285.442+48.8797+288.249+44.3747" fill="#000000" stroke-linecap="butt" opacity="1" stroke-linejoin="round"/>
<path stroke="#000000" stroke-width="1" d="M182.542+163.607C177.094+180.059+172.238+183.575+172.351+183.617C174.42+184.396+179.461+180.899+181.884+180.593C182.378+180.531+192.448+180.27+192.5+180.095C192.514+180.049+183.563+176.352+179.097+172.518C171.458+165.961+170.301+165.22+172.175+167.151C175.213+170.282+178.066+176.564+180.947+181.252C182.921+184.463+185.93+189.21+185.388+187.806C183.498+182.903+182.53+166.863+182.458+163.393C182.324+156.833+189.406+187.273+184.612+188.194C183.454+188.417+183.359+186.189+182.613+185.276C181.437+183.837+170.335+166.927+172.825+165.849C174.222+165.245+180.527+172.311+181.354+172.97C182.585+173.95+192.732+179.261+192.864+180.364C192.943+181.024+182.758+181.327+182.116+181.407C179.884+181.683+173.476+185.937+171.649+183.383" fill="#000000" stroke-linecap="butt" opacity="1" stroke-linejoin="round"/>
<path stroke="#000000" stroke-width="1" d="M446.918+50.5651C443.553+51.8615+436.185+58.9807+439.78+58.6963C443.095+58.4341+448.878+57.6164+451.85+55.6254C451.982+55.5367+454.755+53.7364+454.707+53.7074C453.58+53.0236+448.099+54.484+445.847+53.3821C443.715+52.3389+439.661+46.6567+440.275+48.949C441.103+52.0364+443.809+55.3547+444.293+58.9024C444.479+60.2652+444.331+63.9349+445.255+62.9152C446.636+61.3886+426.955+65.1396+447.082+50.4349C449.956+48.3346+447.959+55.9923+446.952+59.1936C446.504+60.6159+443.745+64.1902+444.745+63.0848C445.687+62.045+441.989+53.4676+441.201+52.1494C440.411+50.827+439.7+50.2741+440.198+48.6982C440.726+47.0276+445.838+52.5812+447.068+53.0922C447.723+53.3641+455.401+53.7687+455.293+54.2926" fill="#000000" stroke-linecap="butt" opacity="1" stroke-linejoin="round"/>
<path stroke="#000000" stroke-width="1" d="M659.083+162.603C658.203+158.633+652.526+167.413+649.228+169.792C641.097+175.657+664.536+166.683+666.656+171.188C667.163+172.265+654.225+166.221+653.204+165.415C653.135+165.361+650.588+163.081+650.709+163.437C651.664+166.241+653.935+169.318+655.78+171.79C659.614+176.925+653.985+161.407+659.417+162.397C663.136+163.075+658.241+169.371+657.534+173C656.251+179.577+649.666+164.055+651.291+162.563C651.938+161.97+663.797+172.66+666.344+171.812C667.567+171.405+663.789+171.377+662.5+171.377C661.406+171.378+645.689+172.107+645.739+171.739" fill="#000000" stroke-linecap="butt" opacity="1" stroke-linejoin="round"/>
<path stroke="#000000" stroke-width="1" d="M120.293+585.107C118.103+589.161+115.244+592.817+112.709+596.665C112.244+597.371+110.979+598.597+111.721+599C113.847+600.154+121.974+592.84+124.388+592.314C124.733+592.239+130.04+591.001+129.683+592.317C128.961+594.974+116.799+591.577+114.91+590.948C113.245+590.394+108.524+588.185+110.251+588.498C114.109+589.196+119.704+595.572+121.784+598.822C122.431+599.832+123.209+602.845+123.798+601.801C124.236+601.026+116.858+589.338+120.207+584.893C123.123+581.023+122.644+603.188+123.202+602.199C125.847+597.511+111.105+592.064+110.018+589C109.899+588.666+125.797+592.715+129.317+592.683C131.228+592.665+125.253+592.219+123.609+593.191C122.244+593.998+112.431+600.565+111.279+599" fill="#000000" stroke-linecap="butt" opacity="1" stroke-linejoin="round"/>
<path stroke="#000000" stroke-width="1" d="M209.917+705.319C206.381+709.889+193.31+720.198+198.89+718.695C203.014+717.584+207.458+712.746+212.327+711.537C215.654+710.711+220.116+710.073+220+710.058C216.053+709.573+210.079+705.945+206.266+704.026C205.069+703.423+202.326+701.291+202.5+702.62C202.989+706.358+205.457+712.07+206.926+715.929C207.791+718.204+209.314+725.233+209.4+722.8C209.48+720.535+203.265+717.212+205.19+712.5C205.269+712.306+205.25+709.053+209.583+705.181C214.496+700.791+206.258+710.677+206.717+715.731C206.977+718.588+209.324+720.161+208.624+722.877C208.596+722.981+208.596+723.308+208.6+723.2C208.727+719.609+199.481+703.344+202.5+701.38C204.282+700.221+221.265+708.693+220+710.942C219.681+711.509+209.986+713.304+208.693+713.949C207.313+714.638+198.733+719.571+198.11+718.305" fill="#000000" stroke-linecap="butt" opacity="1" stroke-linejoin="round"/>
<path stroke="#000000" stroke-width="1" d="M380.041+662.662C375.712+669.222+365.126+673.324+365.442+681.177C365.49+682.378+367.774+680.579+368.91+680.186C373.71+678.53+378.911+678.217+383.5+676.647C383.963+676.488+385.119+675.74+384.891+676.173C382.194+681.291+359.907+660.696+367.917+674.315C369.007+676.168+370.345+677.873+371.383+679.756C372.656+682.066+373.388+685.905+375.37+687.815C375.65+688.084+376.142+687.678+376.5+687.528C382.015+685.22+374.794+668.474+379.959+662.338C385.411+655.86+381.502+695.287+374.63+688.185C371.49+684.941+369.337+678.581+367.083+674.685C359.71+661.946+382.536+673.738+385.109+676.827C386.73+678.773+380.09+677.517+377.572+677.789C375.736+677.987+364.495+683.333+364.558+680.823" fill="#000000" stroke-linecap="butt" opacity="1" stroke-linejoin="round"/>
<path stroke="#000000" stroke-width="1" d="M641.291+659.558C636.459+656.794+625.166+674.214+627.696+669.256C629.927+664.883+646.071+661.177+650.885+660.481C652.078+660.309+654.5+659.335+654.5+660.54C654.5+661.775+652.294+661.756+651.075+661.949C645.323+662.858+641.824+661.922+637.085+658.122C636.705+657.818+634.133+654.906+633.5+656.125C632.184+658.658+636.871+669.707+639.483+670.758C640.527+671.178+638.34+668.749+638.212+667.631C637.76+663.702+636.553+661.909+641.709+659.442C642.737+658.951+640.655+670.076+640.024+671.024C638.381+673.495+631.58+658.912+632.636+656.136C634.266+651.846+641.911+660.085+643.584+660.914C645.018+661.624+654.5+660.239+654.5+661.46C654.5+665.294+646.843+662.332+643.163+663.406C640.071+664.309+629.861+670.721+627.304+668.744" fill="#000000" stroke-linecap="butt" opacity="1" stroke-linejoin="round"/>
<path stroke="#000000" stroke-width="1" d="M660.508+444.368C656.59+445.397+648.236+452.145+652.15+453.191C655.189+454.003+660.127+452.175+663.5+453.235C664.361+453.505+665.774+455.669+665.732+454.768C665.621+452.355+655.442+450.073+653.754+448.431C649.395+444.192+647.336+434.701+651.399+445.4C652.974+449.545+655.388+456.939+658.909+459.796C659.127+459.972+659.208+459.308+659.266+459.033C659.891+456.098+656.537+445.144+660.492+444.132C663.519+443.357+662.899+459.75+658.634+460.366C655.124+460.874+648.896+442.43+649.41+439.363C649.936+436.232+652.037+445.289+654.246+447.569C656.189+449.573+666.044+451.108+665.772+454.772C665.742+455.177+662.623+453.753+661.5+453.74C660.288+453.725+652.453+453.888+651.85+452.809" fill="#000000" stroke-linecap="butt" opacity="1" stroke-linejoin="round"/>
<path stroke="#000000" stroke-width="1" d="M82.7913+261.791C81.2179+264.04+75.5826+268.477+78.3178+268.704C78.9171+268.754+94.9983+263.699+95+263.696C95.3411+263.238+93.9703+264.201+93.5+264.525C91.2207+266.097+79.5164+255.066+79.5324+252.734C79.5385+251.845+83.6378+256.885+83.819+257.309C85.715+261.747+87.6186+267.539+88.2899+272.428C88.4066+273.277+89.0089+275.497+88.3102+275C82.5786+270.921+87.5826+257.43+89.9338+253.46L90.0662+253.54C86.8908+261.282+90.4599+267.252+88.4049+274C88.2855+274.392+88.0237+274.762+87.6898+275C87.0305+275.469+87.829+273.373+87.7101+272.572C87.3301+270.015+86.2888+267.613+85.6696+265.11C84.761+261.437+80.4436+255.772+80.4676+252.266C80.4801+250.443+82.5588+255.276+83.8485+256.564C84.875+257.59+94.0939+265.521+95+264.304C96.194+262.699+91.0751+265.075+89.106+265.424C86.2182+265.936+81.0862+269.6+78.2544+268.746C75.5382+267.926+80.6051+263.549+82.2087+261.209" fill="#000000" stroke-linecap="butt" opacity="1" stroke-linejoin="round"/>
<path stroke="#000000" stroke-width="1" d="M67.6192+87.8994C67.6851+93.5833+58.5651+96.6686+55.1936+101.242C55.0822+101.393+53.3391+103.489+53.172+103.258C52.3483+102.122+53.7384+101.655+54.2897+101.29C58.9706+98.1892+62.7765+97.1175+68.5+97.1681C70.6354+97.187+76.8287+98.8172+74.6933+98.8067C71.7393+98.7922+52.7413+93.0278+56.187+87.6043C58.1614+84.4966+71.3843+101.564+66.8669+104C65.2295+104.883+65.5438+101.465+65.5419+101C65.5282+97.6201+65.7316+92.2752+67.8808+87.6006C68.7271+85.7601+65.1843+101.327+66.1331+104C66.6219+105.377+66.5868+101.036+66.2361+99.6173C65.7074+97.4785+59.912+86.5987+56.813+87.3957C55.8973+87.6311+60.9733+92.9616+61.2267+93.2166C63.2161+95.2189+74.1234+97.769+74.3067+99.1933C74.6214+101.639+69.5022+97.8275+67.0365+97.8281C61.0072+97.8294+57.8531+100.126+52.828+102.742C51.0657+103.659+55.8768+100.187+57.2903+98.7903" fill="#000000" stroke-linecap="butt" opacity="1" stroke-linejoin="round"/>
<path stroke="#000000" stroke-width="1" d="M75.7868+652.062C73.6355+659.297+66.7558+664.16+62.1803+670.163C60.5517+672.3+58.2158+678.394+56.7649+676.132C53.9103+671.684+72.588+662.803+79+668.222C80.371+669.381+71.6328+665.617+70.2632+664.855C67.8456+663.511+65.8535+662.103+63.7202+660.336C62.428+659.265+58.1083+656.801+59.7153+657.285C64.2667+658.655+64.2469+673.107+67.8186+676.394C69.774+678.193+68.2409+671.095+68.5197+668.452C68.9104+664.747+74.4888+659.391+75.7132+651.938C78.2323+636.604+69.6539+675.182+67.7604+676.74C65.4801+678.616+65.2684+671.382+64.1716+668.641C63.4406+666.814+58.6692+658.517+60.2847+656.715C60.7837+656.159+75.9759+669.132+78.7964+669.204C81.5102+669.272+73.7108+666.287+71.0342+666.739C63.684+667.983+61.8473+672.753+56.2351+675.868C55.8182+676.099+59.2753+673.076+61.8197+669.837" fill="#000000" stroke-linecap="butt" opacity="1" stroke-linejoin="round"/>
</g>
</svg>
